<?xml version="1.0" standalone="no"?>
<!DOCTYPE svg PUBLIC "-//W3C//DTD SVG 20010904//EN"
 "http://www.w3.org/TR/2001/REC-SVG-20010904/DTD/svg10.dtd">
<svg version="1.0" xmlns="http://www.w3.org/2000/svg"
 width="45.000000pt" height="50.000000pt" viewBox="0 0 45.000000 50.000000"
 preserveAspectRatio="xMidYMid meet">

<g transform="translate(0.000000,50.000000) scale(0.100000,-0.100000)"
fill="#000000" stroke="none">
<path d="M17 368 c-2 -51 -7 -104 -11 -118 -5 -18 -3 -16 7 6 27 57 122 112
225 129 46 7 49 5 27 -29 -8 -12 -19 -54 -24 -93 -13 -107 -37 -137 -122 -151
-42 -7 -44 -10 -53 -50 -6 -27 -14 -42 -24 -42 -11 0 -13 8 -9 37 10 57 54
138 109 198 50 55 53 69 8 38 -94 -62 -130 -124 -130 -223 l0 -70 120 0 c82 0
132 5 155 14 84 36 102 173 29 221 l-23 15 25 38 c35 50 29 105 -16 145 -30
26 -33 27 -159 27 l-129 0 -5 -92z"/>
</g>
</svg>
